:SAMPLES-PER-SECOND 30
:FULLY-SPECIFIED
:DEGREES
220
root  34.8438323 36.52492133 -14.4814649 9.997968674 -3.618071795 5.109191418
lowerback  -7.784069538 -0.06724678725 -0.4937098324
upperback  -4.130390167 0.5473430157 -4.936260223
thorax  0.1344580054 0.4714440107 -4.796440125
lowerneck  -4.342999935 -16.15600014 -10.82279968
upperneck  8.49876976 -22.07290077 11.45339966
head  5.73607111 -10.55836201 3.392641306
lclavicle  0 -4.497500157e-015 -2.743230041e-014
lhumerus  -47.40200043 30.01689911 60.59159851
lradius  0.001017172704 -6.507048965e-006 28.7408123
lwrist  4.824992743e-007 -3.790274832e-007 -31.24570084
lhand  -4.437294816e-031 -37.27069855 -10.64210033
lfingers  90 7.125020027 -90
lthumb  94.98254316 -25.46518956 101.4622172
rclavicle  0 -4.497500157e-015 -2.743230041e-014
rhumerus  28.26409721 -41.30450058 -21.67839813
rradius  -5.16745672e-007 2.214343908e-008 38.46500015
rwrist  -2.867388866e-005 0.03556994349 -170.0549927
rhand  -1.770691619e-031 4.36206007 -7.483320236
rfingers  -90 -7.125020027 -90
rthumb  -85.05548036 -8.571896007 -59.86791121
rfemur  -13.15296459 14.55131721 11.51277542
rtibia  -1.777237654 -2.094259024 21.0859623
rfoot  0.1549023092 -22.31738663 -35.68685913
rtoes  3.864866905 19.63803791 -101.3659461
lfemur  -6.555366993 -17.81622505 -23.15621948
ltibia  5.481645107 -1.097719789 10.57597446
lfoot  1.284260035 -21.78795624 36.75315857
ltoes  -8.66697179 -18.09423329 -116.1415916
221
root  34.84160656 36.52147608 -14.48221732 9.993336678 -3.648614645 5.114394188
lowerback  -7.800010681 -0.06892848015 -0.4997929931
upperback  -4.125510216 0.5454319715 -4.9303298
thorax  0.1481110007 0.473203361 -4.786779881
lowerneck  -4.342899799 -16.15239906 -10.85960007
upperneck  8.520469666 -22.07169914 11.49359989
head  5.749398708 -10.559268 3.409937382
lclavicle  0 -4.497500157e-015 -2.743230041e-014
lhumerus  -47.42490005 30.02140045 60.59080124
lradius  0.00348203606 -6.507048965e-006 28.75437737
lwrist  4.824992743e-007 -3.790274832e-007 -31.23959923
lhand  -0 -37.25329971 -10.63650036
lfingers  90 7.125020027 -90
lthumb  94.97321377 -25.46036688 101.4431855
rclavicle  0 -4.497500157e-015 -2.743230041e-014
rhumerus  28.2560997 -41.44750214 -21.90579987
rradius  -5.16745672e-007 2.214343908e-008 38.75770187
rwrist  -2.867388866e-005 0.03501050547 -169.5220032
rhand  -1.770786731e-031 4.402219772 -7.467299938
rfingers  -90 -7.125020027 -90
rthumb  -85.03814071 -8.588304392 -59.8275929
rfemur  -13.14883804 14.54370022 11.50844002
rtibia  -1.776152134 -2.115692377 21.07919312
rfoot  0.1671216786 -22.3563118 -35.64707565
rtoes  3.836736516 19.64334348 -101.2822547
lfemur  -6.60365057 -17.77625465 -23.13925743
ltibia  5.449530125 -1.097201586 10.64706326
lfoot  1.293094754 -21.82831955 36.73730469
ltoes  -8.663999644 -18.09561957 -116.1320223
222
root  34.83960309 36.5210856 -14.48301631 10.01776123 -3.691715717 5.084191322
lowerback  -7.783986568 -0.07040530443 -0.5091903806
upperback  -4.117899895 0.5451040268 -4.949399948
thorax  0.145363003 0.4710776806 -4.803750038
lowerneck  -4.335879803 -16.14450073 -10.86270046
upperneck  8.52464962 -22.06310081 11.50800037
head  5.749933243 -10.55426788 3.416652441
lclavicle  0 -4.497500157e-015 -2.743230041e-014
lhumerus  -47.41479874 29.98469925 60.60290146
lradius  0.004758662544 -6.507048965e-006 28.75589943
lwrist  4.824992743e-007 -3.790274832e-007 -31.18950081
lhand  -0 -37.23020172 -10.63659954
lfingers  90 7.125020027 -90
lthumb  94.96241608 -25.46131841 101.4184844
rclavicle  0 -4.497500157e-015 -2.743230041e-014
rhumerus  28.21989822 -41.59119797 -22.13800049
rradius  -5.16745672e-007 2.214343908e-008 38.97600174
rwrist  -2.867388866e-005 0.03445273265 -169.276001
rhand  -1.770724771e-031 4.376100063 -7.50936985
rfingers  -90 -7.125020027 -90
rthumb  -85.06550427 -8.550245295 -59.8562009
rfemur  -13.16546249 14.52139378 11.51062107
rtibia  -1.759238362 -2.126275063 21.03570366
rfoot  0.1900030226 -22.38108063 -35.6060791
rtoes  3.83755572 19.64318954 -101.2846916
lfemur  -6.781611919 -17.81030655 -23.0412674
ltibia  5.337173462 -1.125886202 10.89756298
lfoot  1.304540157 -21.86359596 36.74448395
ltoes  -8.65149572 -18.10144517 -116.0917717
223
root  34.83950097 36.52550705 -14.48384833 10.02927208 -3.721340179 5.077132225
lowerback  -7.764800072 -0.07353793085 -0.5186457634
upperback  -4.114180088 0.5395339727 -4.946809769
thorax  0.1399530023 0.4674690068 -4.793879986
lowerneck  -4.331459999 -16.13369942 -10.86880016
upperneck  8.535499573 -22.04940033 11.51249981
head  5.750848293 -10.54718971 3.421924829
lclavicle  0 -4.497500157e-015 -2.743230041e-014
lhumerus  -47.41400146 29.96619987 60.63869858
lradius  0.005872171372 -6.507048965e-006 28.77280045
lwrist  4.824992743e-007 -3.790274832e-007 -31.15069962
lhand  -4.433634775e-031 -37.20849991 -10.68550014
lfingers  90 7.125020027 -90
lthumb  94.96296558 -25.50998002 101.3999255
rclavicle  0 -4.497500157e-015 -2.743230041e-014
rhumerus  28.2220974 -41.79710007 -22.43389893
rradius  -5.16745672e-007 2.214343908e-008 39.19889832
rwrist  -2.867388866e-005 0.03389666229 -169.0709991
rhand  -1.770893344e-031 4.446800232 -7.493040085
rfingers  -90 -7.125020027 -90
rthumb  -85.04094474 -8.56897586 -59.7860468
rfemur  -13.19047546 14.51531601 11.5154314
rtibia  -1.754410625 -2.125466108 21.04155159
rfoot  0.1831548214 -22.38538551 -35.60033035
rtoes  3.84485621 19.6418162 -101.3064096
lfemur  -6.792027473 -17.79516983 -23.03560257
ltibia  5.336518288 -1.122693539 10.8981638
lfoot  1.311111212 -21.8650589 36.77277756
ltoes  -8.647520468 -18.10329503 -116.0789779
